<?xml version="1.0" standalone="no"?>
<!DOCTYPE svg PUBLIC "-//W3C//DTD SVG 20010904//EN"
 "http://www.w3.org/TR/2001/REC-SVG-20010904/DTD/svg10.dtd">
<svg version="1.0" xmlns="http://www.w3.org/2000/svg"
 width="512.000000pt" height="512.000000pt" viewBox="0 0 512.000000 512.000000"
 preserveAspectRatio="xMidYMid meet">

<g transform="translate(0.000000,512.000000) scale(0.100000,-0.100000)"
fill="#000000" stroke="none">
<path d="M0 4590 l0 -460 720 0 720 0 0 460 0 460 -720 0 -720 0 0 -460z"/>
<path d="M1730 4590 l0 -460 720 0 720 0 0 460 0 460 -720 0 -720 0 0 -460z"/>
<path d="M3550 3630 l0 -1080 -1535 0 -1535 0 0 -1240 0 -1240 2320 0 2320 0
0 2320 0 2320 -785 0 -785 0 0 -1080z m730 -2075 l0 -255 255 0 255 0 0 -185
0 -185 -255 0 -255 0 0 -255 0 -255 -185 0 -185 0 0 255 0 255 -255 0 -255 0
0 185 0 185 255 0 255 0 0 255 0 255 185 0 185 0 0 -255z"/>
<path d="M0 3390 l0 -460 720 0 720 0 0 460 0 460 -720 0 -720 0 0 -460z"/>
<path d="M1737 3843 c-4 -3 -7 -210 -7 -460 l0 -453 720 0 720 0 0 460 0 460
-713 0 c-393 0 -717 -3 -720 -7z"/>
</g>
</svg>
