<?xml version="1.0" standalone="no"?>
<!DOCTYPE svg PUBLIC "-//W3C//DTD SVG 20010904//EN"
 "http://www.w3.org/TR/2001/REC-SVG-20010904/DTD/svg10.dtd">
<svg version="1.0" xmlns="http://www.w3.org/2000/svg"
 width="512.000000pt" height="512.000000pt" viewBox="0 0 512.000000 512.000000"
 preserveAspectRatio="xMidYMid meet">

<g transform="translate(0.000000,512.000000) scale(0.100000,-0.100000)"
fill="#000000" stroke="none">
<path d="M1468 4653 l-3 -468 -467 -3 -468 -2 0 -1715 0 -1715 1655 0 1655 0
0 2185 0 2185 -1185 0 -1185 0 -2 -467z m1752 -1003 l0 -150 -1035 0 -1035 0
0 150 0 150 1035 0 1035 0 0 -150z m0 -640 l0 -150 -1035 0 -1035 0 0 150 0
150 1035 0 1035 0 0 -150z m0 -640 l0 -150 -1035 0 -1035 0 0 150 0 150 1035
0 1035 0 0 -150z"/>
<path d="M847 4802 c-169 -169 -307 -311 -307 -315 0 -4 141 -6 313 -5 l312 3
3 313 c1 171 -1 312 -5 312 -5 0 -146 -138 -316 -308z"/>
<path d="M4140 2410 l0 -1960 -1430 0 -1430 0 0 -225 0 -225 1655 0 1655 0 0
2185 0 2185 -225 0 -225 0 0 -1960z"/>
</g>
</svg>
