<svg id="Capa_1" enable-background="new 0 0 512 512" height="512" viewBox="0 0 512 512" width="512" xmlns="http://www.w3.org/2000/svg"><path d="m501.198 427.2c-6.972-6.959-16.23-10.792-26.068-10.792h-.15v-60.762c0-4.142-3.358-7.5-7.5-7.5s-7.5 3.358-7.5 7.5v60.762h-407.96v-301.415c0-9.649 7.851-17.5 17.5-17.5h43.802v25h-9.432c-14.816 0-26.87 12.054-26.87 26.87v214.69c0 14.822 12.054 26.88 26.87 26.88h304.22c14.816 0 26.87-12.058 26.87-26.88v-214.69c0-14.816-12.054-26.87-26.87-26.87h-9.432v-25h43.802c9.649 0 17.5 7.851 17.5 17.5v210.653c0 4.142 3.358 7.5 7.5 7.5s7.5-3.358 7.5-7.5v-210.653c0-17.921-14.58-32.5-32.5-32.5h-43.802v-19.382c0-22.75-18.509-41.259-41.259-41.259h-202.837c-22.75 0-41.259 18.509-41.259 41.259v19.382h-43.803c-17.92 0-32.5 14.579-32.5 32.5v301.415h-.15c-20.33 0-36.87 16.54-36.87 36.87 0 9.838 3.833 19.096 10.802 26.078 6.972 6.959 16.23 10.792 26.068 10.792h27.535c4.142 0 7.5-3.358 7.5-7.5s-3.358-7.5-7.5-7.5h-27.535c-5.837 0-11.332-2.276-15.462-6.398-4.132-4.14-6.408-9.635-6.408-15.472 0-12.059 9.811-21.87 21.87-21.87h128.415c3.475 16.745 18.342 29.369 36.102 29.369h109.228c17.76 0 32.627-12.623 36.102-29.369h128.413c5.837 0 11.332 2.276 15.462 6.398 4.132 4.14 6.408 9.635 6.408 15.472 0 12.059-9.811 21.87-21.87 21.87h-380.725c-4.142 0-7.5 3.358-7.5 7.5s3.358 7.5 7.5 7.5h380.725c20.33 0 36.87-16.54 36.87-36.87 0-9.838-3.833-19.096-10.802-26.078zm-93.088-289.707c6.545 0 11.87 5.325 11.87 11.87v214.69c0 6.551-5.325 11.88-11.87 11.88h-304.22c-6.545 0-11.87-5.329-11.87-11.88v-214.69c0-6.545 5.325-11.87 11.87-11.87h9.432v84.56c0 22.75 18.509 41.26 41.259 41.26h53.659l42.456 42.456c1.464 1.465 3.384 2.197 5.303 2.197s3.839-.732 5.303-2.197l42.456-42.456h53.659c22.75 0 41.259-18.509 41.259-41.26v-84.56zm-279.788-74.382c0-14.479 11.78-26.259 26.259-26.259h202.837c14.479 0 26.259 11.78 26.259 26.259v158.942c0 14.479-11.78 26.26-26.259 26.26h-56.766c-1.989 0-3.897.79-5.303 2.197l-39.349 39.348-39.35-39.349c-1.406-1.407-3.314-2.197-5.303-2.197h-56.766c-14.479 0-26.259-11.78-26.259-26.26zm182.293 382.666h-109.228c-9.425 0-17.477-5.994-20.545-14.369h150.319c-3.068 8.376-11.12 14.369-20.546 14.369z"/><path d="m162.224 93.728h187.553c4.142 0 7.5-3.358 7.5-7.5s-3.358-7.5-7.5-7.5h-187.553c-4.142 0-7.5 3.358-7.5 7.5s3.358 7.5 7.5 7.5z"/><path d="m162.224 132.635h187.553c4.142 0 7.5-3.358 7.5-7.5s-3.358-7.5-7.5-7.5h-187.553c-4.142 0-7.5 3.358-7.5 7.5s3.358 7.5 7.5 7.5z"/><path d="m162.224 171.543h187.553c4.142 0 7.5-3.358 7.5-7.5s-3.358-7.5-7.5-7.5h-187.553c-4.142 0-7.5 3.358-7.5 7.5s3.358 7.5 7.5 7.5z"/><path d="m162.224 210.45h97.268c4.142 0 7.5-3.358 7.5-7.5s-3.358-7.5-7.5-7.5h-97.268c-4.142 0-7.5 3.358-7.5 7.5s3.358 7.5 7.5 7.5z"/></svg>