<svg height="420pt" viewBox="-57 0 420 420" width="420pt" xmlns="http://www.w3.org/2000/svg"><path d="m187.699219 172.398438c0 19.164062-15.535157 34.703124-34.699219 34.703124s-34.699219-15.539062-34.699219-34.703124c0-19.164063 15.535157-34.699219 34.699219-34.699219s34.699219 15.535156 34.699219 34.699219zm0 0"/><path d="m153 260.101562c-16.589844-.113281-32.511719 6.527344-44.101562 18.398438-10.296876 10.5-16.5 24.5-18 39.800781h124.203124c-1.5-15.402343-7.703124-29.300781-18-39.800781-11.589843-11.871094-27.511718-18.511719-44.101562-18.398438zm0 0"/><path d="m273 0h-240c-18.21875.0195312-32.9804688 14.78125-33 33v354c.0195312 18.21875 14.78125 32.980469 33 33h240c18.21875-.019531 32.980469-14.78125 33-33v-354c-.019531-18.21875-14.78125-32.9804688-33-33zm-161.699219 33.101562h80c3.863281 0 7 3.132813 7 7 0 3.863282-3.136719 7-7 7h-80c-3.867187 0-7-3.136718-7-7 0-3.867187 3.132813-7 7-7zm41.699219 90.597657c26.867188.027343 48.628906 21.832031 48.601562 48.699219-.027343 26.871093-21.832031 48.628906-48.703124 48.601562-26.867188-.027344-48.625-21.832031-48.597657-48.699219.085938-26.84375 21.855469-48.570312 48.699219-48.601562zm69.398438 208.601562h-138.796876c-1.863281.011719-3.648437-.722656-4.964843-2.039062-1.316407-1.316407-2.046875-3.101563-2.035157-4.960938 0-21.800781 7.898438-41.902343 22.296876-56.601562 14.289062-14.460938 33.773437-22.597657 54.101562-22.597657s39.8125 8.136719 54.101562 22.597657c14.398438 14.699219 22.296876 34.800781 22.296876 56.601562.011718 1.859375-.71875 3.644531-2.035157 4.960938-1.316406 1.316406-3.101562 2.050781-4.964843 2.039062zm0 0"/></svg>