<?xml version="1.0" encoding="iso-8859-1"?>
<!-- Generator: Adobe Illustrator 18.0.0, SVG Export Plug-In . SVG Version: 6.00 Build 0)  -->
<!DOCTYPE svg PUBLIC "-//W3C//DTD SVG 1.1//EN" "http://www.w3.org/Graphics/SVG/1.1/DTD/svg11.dtd">
<svg version="1.1" id="Capa_1" xmlns="http://www.w3.org/2000/svg" xmlns:xlink="http://www.w3.org/1999/xlink" x="0px" y="0px"
	 viewBox="0 0 500.345 500.345" style="enable-background:new 0 0 500.345 500.345;" xml:space="preserve">
<g>
	<path d="M250.197,128.078c-57.517,0-104.093,46.626-104.093,104.108c0,27.267,10.493,58.861,27.658,84.518
		c18.556,27.774,31.28,59.401,36.94,92.321l2.653,15.51h73.648l2.668-15.576c5.727-33.169,18.237-64.234,36.941-92.225
		c17.164-25.672,27.672-57.268,27.672-84.549C354.285,174.704,307.693,128.078,250.197,128.078z"/>
	<path d="M213.865,464.032c0,20.049,16.264,36.313,36.313,36.313c20.054,0,36.303-16.248,36.303-36.297v-15.164h-72.615V464.032z"/>
	<path d="M250.178,113.454c9.281,0,16.787-7.507,16.787-16.788V16.789C266.965,7.508,259.459,0,250.178,0
		c-9.276,0-16.788,7.508-16.788,16.789v79.877C233.39,105.947,240.901,113.454,250.178,113.454z"/>
	<path d="M167.055,147.903c6.561-6.562,6.561-17.186,0-23.742l-56.478-56.482c-6.562-6.556-17.187-6.556-23.741,0
		c-6.561,6.56-6.561,17.185,0,23.741l56.482,56.483c3.275,3.274,7.574,4.914,11.869,4.914
		C159.48,152.817,163.78,151.178,167.055,147.903z"/>
	<path d="M115.822,214.237H35.93c-9.279,0-16.788,7.508-16.788,16.788c0,9.281,7.509,16.788,16.788,16.788h79.893
		c9.277,0,16.789-7.507,16.789-16.788C132.611,221.745,125.1,214.237,115.822,214.237z"/>
	<path d="M464.414,214.237h-79.863c-9.279,0-16.787,7.508-16.787,16.788c0,9.281,7.508,16.788,16.787,16.788h79.863
		c9.281,0,16.789-7.507,16.789-16.788C481.203,221.745,473.695,214.237,464.414,214.237z"/>
	<path d="M413.508,67.679c-6.56-6.556-17.186-6.556-23.74,0L333.3,124.161c-6.556,6.557-6.556,17.181,0,23.742
		c3.28,3.274,7.579,4.914,11.874,4.914c4.293,0,8.586-1.64,11.867-4.914l56.467-56.483
		C420.064,84.864,420.064,74.239,413.508,67.679z"/>
</g>
<g>
</g>
<g>
</g>
<g>
</g>
<g>
</g>
<g>
</g>
<g>
</g>
<g>
</g>
<g>
</g>
<g>
</g>
<g>
</g>
<g>
</g>
<g>
</g>
<g>
</g>
<g>
</g>
<g>
</g>
</svg>
