<?xml version="1.0" encoding="UTF-8"?>
<!DOCTYPE svg PUBLIC "-//W3C//DTD SVG 1.1//EN" "http://www.w3.org/Graphics/SVG/1.1/DTD/svg11.dtd">
<svg version="1.2" width="135.73mm" height="135.73mm" viewBox="0 0 13573 13573" preserveAspectRatio="xMidYMid" fill-rule="evenodd" stroke-width="28.222" stroke-linejoin="round" xmlns="http://www.w3.org/2000/svg" xmlns:ooo="http://xml.openoffice.org/svg/export" xmlns:xlink="http://www.w3.org/1999/xlink" xmlns:presentation="http://sun.com/xmlns/staroffice/presentation" xmlns:smil="http://www.w3.org/2001/SMIL20/" xmlns:anim="urn:oasis:names:tc:opendocument:xmlns:animation:1.0" xml:space="preserve">
 <defs class="ClipPathGroup">
  <clipPath id="presentation_clip_path" clipPathUnits="userSpaceOnUse">
   <rect x="0" y="0" width="13573" height="13573"/>
  </clipPath>
  <clipPath id="presentation_clip_path_shrink" clipPathUnits="userSpaceOnUse">
   <rect x="13" y="13" width="13546" height="13546"/>
  </clipPath>
 </defs>
 <defs class="TextShapeIndex">
  <g ooo:slide="id1" ooo:id-list="id3 id4"/>
 </defs>
 <defs class="EmbeddedBulletChars">
  <g id="bullet-char-template-57356" transform="scale(0.00048828125,-0.00048828125)">
   <path d="M 580,1141 L 1163,571 580,0 -4,571 580,1141 Z"/>
  </g>
  <g id="bullet-char-template-57354" transform="scale(0.00048828125,-0.00048828125)">
   <path d="M 8,1128 L 1137,1128 1137,0 8,0 8,1128 Z"/>
  </g>
  <g id="bullet-char-template-10146" transform="scale(0.00048828125,-0.00048828125)">
   <path d="M 174,0 L 602,739 174,1481 1456,739 174,0 Z M 1358,739 L 309,1346 659,739 1358,739 Z"/>
  </g>
  <g id="bullet-char-template-10132" transform="scale(0.00048828125,-0.00048828125)">
   <path d="M 2015,739 L 1276,0 717,0 1260,543 174,543 174,936 1260,936 717,1481 1274,1481 2015,739 Z"/>
  </g>
  <g id="bullet-char-template-10007" transform="scale(0.00048828125,-0.00048828125)">
   <path d="M 0,-2 C -7,14 -16,27 -25,37 L 356,567 C 262,823 215,952 215,954 215,979 228,992 255,992 264,992 276,990 289,987 310,991 331,999 354,1012 L 381,999 492,748 772,1049 836,1024 860,1049 C 881,1039 901,1025 922,1006 886,937 835,863 770,784 769,783 710,716 594,584 L 774,223 C 774,196 753,168 711,139 L 727,119 C 717,90 699,76 672,76 641,76 570,178 457,381 L 164,-76 C 142,-110 111,-127 72,-127 30,-127 9,-110 8,-76 1,-67 -2,-52 -2,-32 -2,-23 -1,-13 0,-2 Z"/>
  </g>
  <g id="bullet-char-template-10004" transform="scale(0.00048828125,-0.00048828125)">
   <path d="M 285,-33 C 182,-33 111,30 74,156 52,228 41,333 41,471 41,549 55,616 82,672 116,743 169,778 240,778 293,778 328,747 346,684 L 369,508 C 377,444 397,411 428,410 L 1163,1116 C 1174,1127 1196,1133 1229,1133 1271,1133 1292,1118 1292,1087 L 1292,965 C 1292,929 1282,901 1262,881 L 442,47 C 390,-6 338,-33 285,-33 Z"/>
  </g>
  <g id="bullet-char-template-9679" transform="scale(0.00048828125,-0.00048828125)">
   <path d="M 813,0 C 632,0 489,54 383,161 276,268 223,411 223,592 223,773 276,916 383,1023 489,1130 632,1184 813,1184 992,1184 1136,1130 1245,1023 1353,916 1407,772 1407,592 1407,412 1353,268 1245,161 1136,54 992,0 813,0 Z"/>
  </g>
  <g id="bullet-char-template-8226" transform="scale(0.00048828125,-0.00048828125)">
   <path d="M 346,457 C 273,457 209,483 155,535 101,586 74,649 74,723 74,796 101,859 155,911 209,963 273,989 346,989 419,989 480,963 531,910 582,859 608,796 608,723 608,648 583,586 532,535 482,483 420,457 346,457 Z"/>
  </g>
  <g id="bullet-char-template-8211" transform="scale(0.00048828125,-0.00048828125)">
   <path d="M -4,459 L 1135,459 1135,606 -4,606 -4,459 Z"/>
  </g>
  <g id="bullet-char-template-61548" transform="scale(0.00048828125,-0.00048828125)">
   <path d="M 173,740 C 173,903 231,1043 346,1159 462,1274 601,1332 765,1332 928,1332 1067,1274 1183,1159 1299,1043 1357,903 1357,740 1357,577 1299,437 1183,322 1067,206 928,148 765,148 601,148 462,206 346,322 231,437 173,577 173,740 Z"/>
  </g>
 </defs>
 <g>
  <g id="id2" class="Master_Slide">
   <g id="bg-id2" class="Background"/>
   <g id="bo-id2" class="BackgroundObjects"/>
  </g>
 </g>
 <g class="SlideGroup">
  <g>
   <g id="container-id1">
    <g id="id1" class="Slide" clip-path="url(#presentation_clip_path)">
     <g class="Page">
      <g class="Graphic">
       <g id="id3">
        <rect class="BoundingBox" stroke="none" fill="none" x="552" y="302" width="12469" height="12469"/>
        <path fill="rgb(0,0,0)" stroke="none" d="M 11193,4981 L 10415,4981 10415,3944 C 10415,1942 8787,314 6786,314 4785,314 3157,1942 3157,3944 L 3157,4981 2379,4981 C 2236,4981 2120,5096 2120,5240 L 2120,11721 C 2120,12293 2585,12758 3157,12758 L 10415,12758 C 10987,12758 11452,12293 11452,11721 L 11452,5240 C 11452,5096 11336,4981 11193,4981 Z M 7562,10396 C 7570,10469 7547,10543 7498,10598 7449,10653 7378,10684 7305,10684 L 6268,10684 C 6194,10684 6123,10653 6074,10598 6025,10543 6002,10469 6010,10396 L 6173,8925 C 5908,8732 5749,8427 5749,8091 5749,7520 6214,7054 6786,7054 7358,7054 7823,7520 7823,8091 7823,8427 7664,8732 7399,8925 L 7562,10396 Z M 4712,4981 L 4712,3944 C 4712,2800 5642,1870 6786,1870 7930,1870 8860,2800 8860,3944 L 8860,4981 4712,4981 Z"/>
       </g>
      </g>
      <g class="Graphic">
       <g id="id4">
        <rect class="BoundingBox" stroke="none" fill="none" x="7802" y="9302" width="3280" height="3280"/>
        <path fill="rgb(255,255,255)" stroke="none" d="M 10628,10535 L 10572,10403 C 10763,9972 10750,9959 10713,9922 L 10470,9684 10446,9663 10417,9663 C 10402,9663 10358,9663 9988,9831 L 9851,9776 C 9675,9340 9657,9340 9606,9340 L 9262,9340 C 9211,9340 9191,9340 9027,9778 L 8891,9833 C 8641,9727 8494,9674 8455,9674 L 8422,9675 8160,9932 C 8121,9969 8107,9982 8308,10407 L 8253,10538 C 7807,10711 7807,10727 7807,10780 L 7807,11117 C 7807,11170 7807,11188 8254,11349 L 8310,11480 C 8119,11911 8132,11924 8169,11961 L 8413,12199 8437,12220 8465,12220 C 8480,12220 8524,12220 8895,12052 L 9031,12107 C 9207,12544 9225,12543 9277,12543 L 9620,12543 C 9673,12543 9691,12543 9855,12105 L 9992,12050 C 10242,12156 10388,12210 10427,12210 L 10460,12209 10724,11950 C 10762,11912 10775,11899 10574,11477 L 10629,11345 C 11076,11172 11076,11154 11076,11103 L 11076,10766 C 11076,10713 11076,10695 10628,10535 L 10628,10535 Z M 9441,11502 C 9126,11502 8870,11250 8870,10941 8870,10632 9126,10381 9441,10381 9756,10381 10012,10632 10012,10941 10012,11250 9756,11502 9441,11502 L 9441,11502 Z"/>
       </g>
      </g>
     </g>
    </g>
   </g>
  </g>
 </g>
</svg>