<?xml version="1.0" standalone="no"?>
<!DOCTYPE svg PUBLIC "-//W3C//DTD SVG 20010904//EN"
 "http://www.w3.org/TR/2001/REC-SVG-20010904/DTD/svg10.dtd">
<svg version="1.0" xmlns="http://www.w3.org/2000/svg"
 width="512.000000pt" height="512.000000pt" viewBox="0 0 512.000000 512.000000"
 preserveAspectRatio="xMidYMid meet">

<g transform="translate(0.000000,512.000000) scale(0.100000,-0.100000)"
fill="#000000" stroke="none">
<path d="M1580 5079 c-14 -6 -36 -20 -48 -32 -46 -43 -52 -67 -52 -222 0 -108
-3 -147 -12 -149 -85 -24 -186 -60 -241 -86 l-67 -33 -114 111 c-123 120 -161
141 -233 127 -32 -6 -62 -31 -186 -153 -82 -81 -155 -159 -163 -174 -17 -32
-18 -111 -3 -141 6 -12 56 -67 110 -122 l99 -100 -49 -95 c-27 -52 -59 -123
-71 -157 l-23 -63 -151 0 c-137 0 -156 -2 -196 -22 -33 -17 -51 -35 -68 -68
-21 -41 -22 -57 -22 -244 0 -227 8 -260 77 -306 34 -23 46 -25 188 -28 l151
-4 16 -61 c9 -34 35 -106 58 -160 l42 -99 -114 -116 c-126 -128 -139 -154
-118 -233 9 -33 39 -70 148 -182 220 -225 263 -230 443 -50 l97 96 116 -58
c64 -32 118 -56 120 -54 2 2 13 23 25 46 48 95 112 146 212 165 l64 13 -3 120
c-1 66 1 141 6 167 l9 47 -31 6 c-17 4 -73 27 -125 52 -179 86 -316 260 -357
454 -37 172 2 369 100 517 117 176 302 280 517 290 194 8 357 -50 490 -175
132 -125 193 -249 210 -429 14 -158 -5 -250 -93 -447 -61 -136 -88 -258 -95
-419 l-6 -138 397 0 396 0 0 48 c0 48 -2 50 -81 128 l-82 79 33 60 c19 33 51
103 71 155 21 52 43 96 48 96 6 1 81 2 167 3 l155 1 47 44 47 45 3 225 c3 251
-1 276 -62 319 -28 20 -44 22 -187 25 l-156 3 -22 77 c-13 42 -40 115 -62 162
l-40 84 110 111 c60 60 114 120 120 132 16 31 14 100 -5 138 -8 18 -79 96
-157 173 -116 114 -151 142 -185 151 -76 21 -113 3 -232 -114 l-105 -104 -62
35 c-35 20 -104 53 -155 73 l-93 38 -5 166 c-5 180 -9 193 -74 241 -25 20 -43
21 -244 23 -130 1 -227 -2 -242 -8z"/>
<path d="M2196 3492 c-112 -59 -209 -149 -279 -255 -66 -100 -90 -152 -121
-261 -36 -122 -46 -216 -47 -422 0 -128 -4 -186 -12 -192 -7 -5 -37 -13 -67
-17 -30 -4 -68 -13 -85 -20 -40 -17 -124 -93 -159 -143 -56 -81 -57 -100 -54
-861 l3 -696 33 -67 c40 -82 119 -157 200 -190 l57 -23 920 -3 c661 -2 937 0
980 8 121 24 217 96 271 206 l29 59 0 730 0 730 -29 58 c-55 109 -169 192
-280 206 l-51 6 -6 210 c-7 216 -9 243 -35 356 l-15 66 -41 -20 c-32 -16 -71
-22 -180 -28 -77 -4 -142 -9 -144 -12 -2 -2 4 -33 13 -68 14 -52 18 -106 18
-284 l0 -220 -492 -3 -492 -2 -7 37 c-9 48 3 368 15 413 5 19 12 49 15 65 10
64 40 141 96 250 64 126 95 234 85 299 -8 53 -35 136 -43 136 -4 0 -47 -22
-96 -48z m524 -1793 c167 -76 204 -292 69 -414 l-39 -35 0 -153 c0 -128 -3
-158 -18 -186 -42 -79 -140 -92 -199 -27 l-33 36 0 164 0 164 -35 26 c-19 15
-47 48 -62 74 -24 40 -28 58 -28 122 0 64 4 82 28 122 65 111 204 158 317 107z"/>
</g>
</svg>
