<svg id="Capa_1" enable-background="new 0 0 512 512" height="512" viewBox="0 0 512 512" width="512" xmlns="http://www.w3.org/2000/svg"><g><path d="m241.076 389.24v92.76h-60v30c11.515 0 157.508 0 150 0v-30h-60v-92.76c79.021-7.165 142.075-70.219 149.24-149.24h30.76v-30c-29.086 0-93.704 0-90 0-.15 12.596.518 20.834-1.199 30h29.683c-7.573 67.315-64.177 120-133.484 120s-125.911-52.685-133.484-120h29.683c-1.717-9.166-1.049-17.404-1.199-30-29.086 0-93.704 0-90 0v30h30.76c7.165 79.021 70.219 142.075 149.24 149.24z"/><path d="m256.076 330c52.8 0 96.599-39.3 103.801-90h-207.601c7.201 50.7 51 90 103.8 90z"/><path d="m361.076 180h-90v-30h90v-30h-90v-30h88.484c-7.355-50.757-50.72-90-103.484-90s-96.129 39.243-103.484 90h88.484v30h-90v30h90v30h-90v30h210z"/></g></svg>