<svg height="444pt" viewBox="-58 0 443 444" width="444pt" xmlns="http://www.w3.org/2000/svg"><path d="m293.5 34h-93v19c.011719 1.859375-.722656 3.648438-2.039062 4.960938-1.3125 1.316406-3.101563 2.050781-4.960938 2.039062h-60c-1.859375.011719-3.648438-.722656-4.960938-2.039062-1.316406-1.3125-2.050781-3.101563-2.039062-4.960938v-19h-93c-18.21875.019531-32.980469 14.78125-33 33v344c.019531 18.21875 14.78125 32.980469 33 33h260c18.21875-.019531 32.980469-14.78125 33-33v-344c-.019531-18.21875-14.78125-32.980469-33-33zm-130 70c26.894531 0 48.699219 21.804688 48.699219 48.699219 0 26.898437-21.804688 48.699219-48.699219 48.699219s-48.699219-21.800782-48.699219-48.699219c.03125-26.882813 21.816407-48.667969 48.699219-48.699219zm-54.101562 145c14.289062-14.460938 33.773437-22.601562 54.101562-22.601562s39.8125 8.140624 54.101562 22.601562c14.398438 14.699219 22.296876 34.800781 22.296876 56.601562.011718 1.859376-.71875 3.644532-2.035157 4.960938-1.316406 1.316406-3.101562 2.050781-4.964843 2.039062h-138.796876c-1.863281.011719-3.648437-.722656-4.964843-2.039062-1.316407-1.316406-2.046875-3.101562-2.035157-4.960938 0-21.800781 7.898438-41.902343 22.296876-56.601562zm119.300781 104c.011719 1.859375-.722657 3.648438-2.035157 4.960938-1.316406 1.316406-3.105468 2.050781-4.964843 2.039062h-116.398438c-3.867187 0-7-3.132812-7-7s3.132813-7 7-7h116.5c1.84375.007812 3.609375.753906 4.902344 2.066406 1.296875 1.3125 2.015625 3.089844 1.996094 4.933594zm43 51h-216.398438c-3.867187 0-7-3.132812-7-7s3.132813-7 7-7h216.5c1.859375-.011719 3.644531.722656 4.960938 2.039062 1.316406 1.3125 2.050781 3.101563 2.039062 4.960938-.011719 1.871094-.765625 3.660156-2.097656 4.972656s-3.132813 2.042969-5.003906 2.027344zm0 0"/><path d="m169.054688 118.445312c18.917968 3.070313 31.765624 20.894532 28.695312 39.808594-3.070312 18.917969-20.894531 31.765625-39.808594 28.695313-18.917968-3.070313-31.765625-20.894531-28.695312-39.808594 3.070312-18.917969 20.894531-31.765625 39.808594-28.695313zm0 0"/><path d="m140.5 0h46v46h-46zm0 0"/><path d="m207.601562 258.800781c-11.65625-11.777343-27.535156-18.402343-44.101562-18.402343s-32.445312 6.625-44.101562 18.402343c-10.296876 10.5-16.5 24.5-18 39.800781h124.203124c-1.5-15.402343-7.703124-29.300781-18-39.800781zm0 0"/></svg>