<?xml version="1.0" encoding="UTF-8"?>
<!DOCTYPE svg PUBLIC "-//W3C//DTD SVG 1.1//EN" "http://www.w3.org/Graphics/SVG/1.1/DTD/svg11.dtd">
<svg version="1.2" width="210.26mm" height="297.26mm" viewBox="0 0 21026 29726" preserveAspectRatio="xMidYMid" fill-rule="evenodd" stroke-width="28.222" stroke-linejoin="round" xmlns="http://www.w3.org/2000/svg" xmlns:ooo="http://xml.openoffice.org/svg/export" xmlns:xlink="http://www.w3.org/1999/xlink" xmlns:presentation="http://sun.com/xmlns/staroffice/presentation" xmlns:smil="http://www.w3.org/2001/SMIL20/" xmlns:anim="urn:oasis:names:tc:opendocument:xmlns:animation:1.0" xml:space="preserve">
 <defs class="ClipPathGroup">
  <clipPath id="presentation_clip_path" clipPathUnits="userSpaceOnUse">
   <rect x="0" y="0" width="21026" height="29726"/>
  </clipPath>
  <clipPath id="presentation_clip_path_shrink" clipPathUnits="userSpaceOnUse">
   <rect x="21" y="29" width="20984" height="29667"/>
  </clipPath>
 </defs>
 <defs class="TextShapeIndex">
  <g ooo:slide="id1" ooo:id-list="id3 id4"/>
 </defs>
 <defs class="EmbeddedBulletChars">
  <g id="bullet-char-template-57356" transform="scale(0.00048828125,-0.00048828125)">
   <path d="M 580,1141 L 1163,571 580,0 -4,571 580,1141 Z"/>
  </g>
  <g id="bullet-char-template-57354" transform="scale(0.00048828125,-0.00048828125)">
   <path d="M 8,1128 L 1137,1128 1137,0 8,0 8,1128 Z"/>
  </g>
  <g id="bullet-char-template-10146" transform="scale(0.00048828125,-0.00048828125)">
   <path d="M 174,0 L 602,739 174,1481 1456,739 174,0 Z M 1358,739 L 309,1346 659,739 1358,739 Z"/>
  </g>
  <g id="bullet-char-template-10132" transform="scale(0.00048828125,-0.00048828125)">
   <path d="M 2015,739 L 1276,0 717,0 1260,543 174,543 174,936 1260,936 717,1481 1274,1481 2015,739 Z"/>
  </g>
  <g id="bullet-char-template-10007" transform="scale(0.00048828125,-0.00048828125)">
   <path d="M 0,-2 C -7,14 -16,27 -25,37 L 356,567 C 262,823 215,952 215,954 215,979 228,992 255,992 264,992 276,990 289,987 310,991 331,999 354,1012 L 381,999 492,748 772,1049 836,1024 860,1049 C 881,1039 901,1025 922,1006 886,937 835,863 770,784 769,783 710,716 594,584 L 774,223 C 774,196 753,168 711,139 L 727,119 C 717,90 699,76 672,76 641,76 570,178 457,381 L 164,-76 C 142,-110 111,-127 72,-127 30,-127 9,-110 8,-76 1,-67 -2,-52 -2,-32 -2,-23 -1,-13 0,-2 Z"/>
  </g>
  <g id="bullet-char-template-10004" transform="scale(0.00048828125,-0.00048828125)">
   <path d="M 285,-33 C 182,-33 111,30 74,156 52,228 41,333 41,471 41,549 55,616 82,672 116,743 169,778 240,778 293,778 328,747 346,684 L 369,508 C 377,444 397,411 428,410 L 1163,1116 C 1174,1127 1196,1133 1229,1133 1271,1133 1292,1118 1292,1087 L 1292,965 C 1292,929 1282,901 1262,881 L 442,47 C 390,-6 338,-33 285,-33 Z"/>
  </g>
  <g id="bullet-char-template-9679" transform="scale(0.00048828125,-0.00048828125)">
   <path d="M 813,0 C 632,0 489,54 383,161 276,268 223,411 223,592 223,773 276,916 383,1023 489,1130 632,1184 813,1184 992,1184 1136,1130 1245,1023 1353,916 1407,772 1407,592 1407,412 1353,268 1245,161 1136,54 992,0 813,0 Z"/>
  </g>
  <g id="bullet-char-template-8226" transform="scale(0.00048828125,-0.00048828125)">
   <path d="M 346,457 C 273,457 209,483 155,535 101,586 74,649 74,723 74,796 101,859 155,911 209,963 273,989 346,989 419,989 480,963 531,910 582,859 608,796 608,723 608,648 583,586 532,535 482,483 420,457 346,457 Z"/>
  </g>
  <g id="bullet-char-template-8211" transform="scale(0.00048828125,-0.00048828125)">
   <path d="M -4,459 L 1135,459 1135,606 -4,606 -4,459 Z"/>
  </g>
  <g id="bullet-char-template-61548" transform="scale(0.00048828125,-0.00048828125)">
   <path d="M 173,740 C 173,903 231,1043 346,1159 462,1274 601,1332 765,1332 928,1332 1067,1274 1183,1159 1299,1043 1357,903 1357,740 1357,577 1299,437 1183,322 1067,206 928,148 765,148 601,148 462,206 346,322 231,437 173,577 173,740 Z"/>
  </g>
 </defs>
 <g>
  <g id="id2" class="Master_Slide">
   <g id="bg-id2" class="Background"/>
   <g id="bo-id2" class="BackgroundObjects"/>
  </g>
 </g>
 <g class="SlideGroup">
  <g>
   <g id="container-id1">
    <g id="id1" class="Slide" clip-path="url(#presentation_clip_path)">
     <g class="Page">
      <g class="Graphic">
       <g id="id3">
        <rect class="BoundingBox" stroke="none" fill="none" x="-36" y="5281" width="21251" height="21251"/>
        <path fill="rgb(0,0,0)" stroke="none" d="M 17143,14661 L 16756,14661 16756,11516 C 16756,8164 14096,5364 10771,5304 10680,5302 10498,5302 10407,5304 7082,5364 4422,8164 4422,11516 L 4422,11586 C 4422,12291 4994,12862 5698,12862 6403,12862 6975,12291 6975,11586 L 6975,11516 C 6975,9519 8597,7868 10589,7868 12581,7868 14203,9519 14203,11516 L 14203,14661 4035,14661 C 3438,14661 2951,15277 2951,16038 L 2951,25128 C 2951,25888 3438,26509 4035,26509 L 17143,26509 C 17740,26509 18227,25888 18227,25128 L 18227,16037 C 18227,15277 17740,14661 17143,14661 L 17143,14661 Z M 11817,20573 L 11817,23320 C 11817,23635 11554,23901 11239,23901 L 9939,23901 C 9624,23901 9361,23635 9361,23320 L 9361,20573 C 9056,20273 8878,19857 8878,19398 8878,18527 9551,17778 10407,17744 10498,17740 10680,17740 10771,17744 11627,17778 12300,18527 12300,19398 12300,19857 12122,20273 11817,20573 L 11817,20573 Z"/>
       </g>
      </g>
      <g class="Graphic">
       <g id="id4">
        <rect class="BoundingBox" stroke="none" fill="none" x="12531" y="20531" width="5251" height="5251"/>
        <path fill="rgb(255,255,255)" stroke="none" d="M 17056,22505 L 16967,22293 C 17272,21603 17252,21583 17192,21523 L 16802,21142 16764,21109 16718,21109 C 16695,21109 16623,21109 16031,21378 L 15812,21290 C 15530,20591 15501,20591 15419,20591 L 14869,20591 C 14786,20591 14754,20591 14493,21293 L 14275,21381 C 13875,21212 13640,21126 13576,21126 L 13524,21128 13105,21539 C 13041,21599 13019,21620 13342,22299 L 13253,22510 C 12539,22786 12539,22813 12539,22897 L 12539,23437 C 12539,23522 12539,23551 13255,23808 L 13344,24018 C 13039,24708 13059,24729 13119,24788 L 13509,25170 13548,25203 13593,25203 C 13616,25203 13687,25203 14280,24933 L 14498,25022 C 14780,25721 14809,25721 14892,25721 L 15442,25721 C 15526,25721 15556,25721 15819,25019 L 16037,24931 C 16437,25100 16672,25186 16735,25186 L 16787,25185 17210,24771 C 17270,24710 17291,24689 16970,24013 L 17058,23802 C 17773,23526 17773,23497 17773,23414 L 17773,22875 C 17773,22790 17773,22761 17056,22505 L 17056,22505 Z M 15156,24053 C 14651,24053 14240,23651 14240,23156 14240,22661 14651,22258 15156,22258 15660,22258 16070,22661 16070,23156 16070,23651 15660,24053 15156,24053 L 15156,24053 Z"/>
       </g>
      </g>
     </g>
    </g>
   </g>
  </g>
 </g>
</svg>