<?xml version="1.0" standalone="no"?>
<!DOCTYPE svg PUBLIC "-//W3C//DTD SVG 20010904//EN"
 "http://www.w3.org/TR/2001/REC-SVG-20010904/DTD/svg10.dtd">
<svg version="1.0" xmlns="http://www.w3.org/2000/svg"
 width="512.000000pt" height="512.000000pt" viewBox="0 0 512.000000 512.000000"
 preserveAspectRatio="xMidYMid meet">

<g transform="translate(0.000000,512.000000) scale(0.100000,-0.100000)"
fill="#000000" stroke="none">
<path d="M1580 5069 c-29 -12 -67 -45 -83 -74 -7 -12 -14 -85 -17 -174 l-5
-153 -75 -22 c-41 -12 -112 -39 -158 -60 l-82 -39 -109 106 c-121 120 -160
142 -230 132 -42 -6 -57 -18 -194 -153 -82 -81 -155 -159 -163 -174 -17 -32
-18 -111 -3 -141 6 -12 56 -67 110 -122 l100 -101 -50 -94 c-27 -52 -59 -123
-71 -157 l-23 -63 -151 0 c-137 0 -156 -2 -196 -22 -33 -17 -51 -35 -68 -68
-21 -41 -22 -57 -22 -241 0 -115 4 -209 11 -226 15 -42 68 -92 109 -103 19 -5
94 -10 165 -10 l130 0 17 -63 c9 -34 35 -106 58 -160 l42 -98 -114 -117 c-126
-128 -139 -154 -118 -233 9 -33 39 -70 148 -182 220 -225 263 -230 444 -49
l98 96 72 -39 c40 -21 108 -53 153 -70 l80 -31 5 -166 c6 -184 10 -198 80
-246 31 -21 43 -22 144 -20 l110 3 43 75 c24 41 63 114 87 162 46 89 70 129
201 336 147 232 195 266 380 267 95 0 105 -2 203 -42 121 -51 261 -120 350
-174 35 -21 66 -39 69 -39 10 0 33 72 33 102 -1 59 -34 110 -130 201 l-93 89
46 91 c26 51 57 121 71 157 l24 65 168 5 c154 5 172 7 200 27 59 42 64 68 64
303 0 235 -5 261 -64 303 -28 20 -44 22 -187 25 l-155 3 -28 89 c-15 49 -43
122 -62 161 l-35 73 109 110 c61 61 115 121 121 133 14 28 14 93 0 130 -12 32
-258 284 -307 315 -40 25 -116 27 -158 5 -16 -9 -71 -58 -123 -111 l-95 -95
-63 35 c-35 20 -105 53 -156 73 l-92 38 -5 166 c-5 180 -9 193 -74 241 -25 20
-43 21 -244 23 -130 1 -227 -2 -242 -8z m354 -1019 c123 -31 209 -81 306 -179
139 -140 195 -277 193 -476 0 -90 -5 -125 -27 -190 -65 -202 -216 -360 -409
-431 -247 -89 -513 -29 -702 161 -92 91 -152 198 -181 320 -22 95 -14 264 16
355 73 219 258 391 479 445 86 21 234 18 325 -5z"/>
<path d="M3655 2931 c-84 -7 -80 5 -62 -181 l12 -135 125 3 c151 4 240 -9 328
-49 130 -58 202 -162 223 -318 20 -149 -16 -266 -109 -353 -89 -84 -223 -133
-388 -145 l-90 -6 -90 48 c-49 26 -165 91 -259 143 -93 53 -226 126 -294 164
-69 37 -127 71 -130 76 -8 10 -211 132 -280 167 -128 64 -229 68 -333 13 -75
-40 -98 -69 -177 -220 -35 -68 -102 -187 -148 -265 -45 -79 -83 -146 -83 -149
0 -3 -58 -110 -128 -238 -70 -127 -133 -244 -140 -259 -7 -15 -12 -63 -12
-107 0 -69 4 -86 33 -141 19 -36 50 -77 77 -100 25 -20 347 -204 715 -409 655
-364 672 -373 754 -387 67 -12 94 -12 130 -3 58 14 117 49 158 92 17 18 158
261 313 540 317 571 317 571 287 695 -20 81 -20 83 -6 83 17 0 127 50 184 84
215 127 335 347 335 613 0 298 -140 538 -385 659 -165 81 -319 104 -560 85z
m-682 -1402 c86 -23 151 -116 150 -210 -2 -108 -71 -191 -173 -208 -32 -6 -39
-15 -95 -113 -71 -126 -87 -145 -133 -158 -65 -18 -132 35 -132 105 0 14 29
79 65 144 l65 118 -15 43 c-20 57 -19 107 5 155 52 108 151 155 263 124z"/>
</g>
</svg>
